<svg width="50" height="50" viewBox="0 0 50 50" fill="none" xmlns="http://www.w3.org/2000/svg">
<path d="M23.9609 29.5063C19.3596 33.996 17.1585 39.203 21.3052 43.4529C25.5856 47.8394 30.9406 45.407 35.3132 41.1407C39.9145 36.6509 42.1156 31.4439 37.9686 27.1938C33.688 22.8069 28.3321 25.2409 23.9609 29.5063ZM36.504 29.589C35.9752 32.4385 33.8245 34.6016 31.2546 35.9937C28.5107 37.4803 27.8458 36.7036 23.9422 41.5913C23.4845 42.1646 22.5674 41.6755 22.7903 40.9739C23.6424 38.3153 25.4738 35.8812 28.1298 34.648C30.0652 33.7495 33.1335 32.7689 35.2745 29.1449L35.2826 29.1312C35.6587 28.4949 36.6367 28.8661 36.504 29.589ZM14.3063 25.8261C12.8774 23.9948 11.4184 22.9656 9.58478 22.2262L9.56993 22.2202C8.88478 21.9436 9.10532 20.9209 9.84001 20.9441C11.9495 21.0143 14.308 22.092 16.1967 24.2571C18.4381 26.8486 18.0356 27.7845 20.8521 29.8619C22.2534 28.221 24.1047 26.4909 25.9717 25.2378C24.951 23.6011 23.4347 22.0295 21.6151 20.583C16.8231 16.7736 11.2545 14.9098 7.44501 19.7016C3.75001 24.3498 6.46704 29.307 11.4996 33.3077C13.4049 34.8222 15.3683 35.9816 17.2738 36.5866C17.6545 34.6855 18.6821 32.7034 19.5381 31.5753C16.4314 29.8902 16.0646 28.0791 14.3063 25.8261ZM32.6262 4.22461C26.1973 4.22461 20.9855 6.41422 20.9855 12.3523C20.9855 18.2902 26.1973 20.4799 32.6262 20.4799C39.0549 20.4799 44.2667 18.2902 44.2667 12.3523C44.2667 6.41422 39.0549 4.22461 32.6262 4.22461ZM41.5009 13.018C39.0421 14.3613 36.0207 14.8491 33.272 13.9202C31.2441 13.2348 28.368 11.828 24.3024 12.9821L24.2872 12.9865C23.5763 13.1882 23.1234 12.2453 23.7178 11.8128C26.4034 9.86883 29.9034 10.0359 33.0707 11.1629C35.6586 12.0836 36.3937 12.421 41.0919 11.7767C41.8186 11.6769 42.1459 12.6634 41.5009 13.018Z" fill="#767676"/>
</svg>
