<svg width="26" height="26" viewBox="0 0 26 26" fill="none" xmlns="http://www.w3.org/2000/svg">
<path d="M13 25V15.75H10.5C10.3674 15.75 10.2402 15.6973 10.1464 15.6036C10.0527 15.5098 10 15.3826 10 15.25V12.25C10 12.1174 10.0527 11.9902 10.1464 11.8964C10.2402 11.8027 10.3674 11.75 10.5 11.75H13V10.69C13 9.18092 13.5995 7.73364 14.6666 6.66656C15.7336 5.59948 17.1809 5 18.69 5H20.5C20.6326 5 20.7598 5.05268 20.8536 5.14645C20.9473 5.24021 21 5.36739 21 5.5V8.5C21 8.63261 20.9473 8.75979 20.8536 8.85355C20.7598 8.94732 20.6326 9 20.5 9H18.69C18.4681 9 18.2483 9.04371 18.0433 9.12864C17.8382 9.21357 17.6519 9.33806 17.495 9.49499C17.3381 9.65192 17.2136 9.83823 17.1286 10.0433C17.0437 10.2483 17 10.4681 17 10.69V11.75H19.94C20.011 11.7495 20.0814 11.7641 20.1463 11.7929C20.2112 11.8217 20.2693 11.864 20.3166 11.917C20.3639 11.97 20.3994 12.0324 20.4206 12.1002C20.4419 12.168 20.4485 12.2395 20.44 12.31L20.06 15.31C20.0453 15.432 19.9861 15.5442 19.8939 15.6254C19.8017 15.7065 19.6828 15.7509 19.56 15.75H17V25" stroke="black" stroke-width="1.2" stroke-linecap="round" stroke-linejoin="round"/>
<path d="M17 25H22C23.6569 25 25 23.6569 25 22V4C25 2.34315 23.6569 1 22 1H4C2.34315 1 1 2.34315 1 4V22C1 23.6569 2.34315 25 4 25H13" stroke="black" stroke-width="1.2"/>
</svg>
