<svg width="26" height="26" viewBox="0 0 26 26" fill="none" xmlns="http://www.w3.org/2000/svg">
<path d="M12.99 18.3496C15.7514 18.3496 17.99 16.111 17.99 13.3496C17.99 10.5882 15.7514 8.34961 12.99 8.34961C10.2286 8.34961 7.98999 10.5882 7.98999 13.3496C7.98999 16.111 10.2286 18.3496 12.99 18.3496Z" stroke="black" stroke-width="1.2" stroke-linecap="round" stroke-linejoin="round"/>
<path d="M20.34 6.5C20.34 6.63261 20.2873 6.75979 20.1936 6.85355C20.0998 6.94732 19.9726 7 19.84 7C19.7074 7 19.5802 6.94732 19.4865 6.85355C19.3927 6.75979 19.34 6.63261 19.34 6.5" stroke="black" stroke-width="1.2" stroke-linecap="round" stroke-linejoin="round"/>
<path d="M19.34 6.5C19.34 6.36739 19.3927 6.24021 19.4865 6.14645C19.5802 6.05268 19.7074 6 19.84 6C19.9726 6 20.0998 6.05268 20.1936 6.14645C20.2873 6.24021 20.34 6.36739 20.34 6.5" stroke="black" stroke-width="1.2" stroke-linecap="round" stroke-linejoin="round"/>
<rect x="1" y="1" width="24" height="24" rx="3" stroke="black" stroke-width="1.2"/>
</svg>
