<?xml version="1.0" encoding="iso-8859-1"?>
<!-- Generator: Adobe Illustrator 19.0.0, SVG Export Plug-In . SVG Version: 6.00 Build 0)  -->
<svg version="1.1" id="Capa_1" xmlns="http://www.w3.org/2000/svg" xmlns:xlink="http://www.w3.org/1999/xlink" x="0px" y="0px"
	 viewBox="0 0 512 512" style="enable-background:new 0 0 512 512;" xml:space="preserve">
<g>
	<g>
		<path d="M447.046,162.75c5.922-0.156,30.568-1.802,46.853-18.084c18.219-18.219,18.113-46.928,18.1-48.141l-0.082-7.331
			l-7.33-0.081c-1.252-0.007-29.921-0.116-48.14,18.101c-3.924,3.924-6.994,8.335-9.401,12.853V98.219
			c5.056-5.543,19.554-23.335,19.554-45.071c0-25.766-20.374-45.99-21.241-46.839l-5.24-5.126l-5.24,5.126
			c-0.867,0.848-21.241,21.073-21.241,46.839c0,20.285,12.623,37.129,18.419,43.793v21.093c-2.219-3.802-4.933-7.488-8.265-10.82
			c-18.219-18.219-46.897-18.086-48.141-18.101l-7.331,0.081l-0.081,7.331c-0.013,1.213-0.117,29.921,18.102,48.141
			c15.385,15.385,38.244,17.702,45.716,18.043v16.34H263.245V162.75c5.922-0.156,30.568-1.802,46.853-18.084
			c18.218-18.219,18.114-46.928,18.101-48.141l-0.081-7.331l-7.331-0.081c-1.231-0.007-29.923-0.116-48.141,18.101
			c-3.924,3.924-6.994,8.335-9.401,12.853V98.219c5.055-5.543,19.554-23.335,19.554-45.07c0-25.766-20.374-45.99-21.241-46.839
			l-5.24-5.126l-5.24,5.126c-0.867,0.848-21.241,21.073-21.241,46.839c0,20.285,12.623,37.129,18.419,43.793v21.092
			c-2.219-3.802-4.933-7.487-8.265-10.819c-18.22-18.219-46.904-18.086-48.141-18.101l-7.331,0.081l-0.081,7.331
			c-0.013,1.213-0.117,29.921,18.102,48.141c15.385,15.385,38.244,17.702,45.716,18.043v16.34H79.444v-16.299
			c5.922-0.156,30.568-1.802,46.853-18.084c18.218-18.219,18.114-46.928,18.101-48.141l-0.081-7.331l-7.331-0.081
			c-1.239-0.007-29.922-0.116-48.141,18.102c-3.924,3.924-6.994,8.336-9.401,12.853v-21.85c5.056-5.543,19.554-23.335,19.554-45.071
			c0-25.766-20.374-45.99-21.241-46.839l-5.24-5.126l-5.24,5.126c-0.867,0.848-21.241,21.073-21.241,46.839
			c0,20.285,12.623,37.129,18.419,43.793v21.092c-2.219-3.802-4.933-7.487-8.265-10.819C37.968,88.995,9.278,89.129,8.049,89.113
			l-7.33,0.081l-0.082,7.331c-0.013,1.213-0.119,29.921,18.101,48.141c15.385,15.385,38.244,17.702,45.716,18.043v16.34H0v14.989
			h64.454v26.481h14.989v-26.481h168.812v26.481h14.989v-26.481h168.812v26.481h14.989v-26.481h64.59v-14.989h-64.591V162.75z
			 M467.048,117.814c8.644-8.645,21.17-11.841,29.293-13.021c-1.163,8.102-4.345,20.575-13.042,29.272
			c-8.635,8.634-21.138,11.832-29.268,13.015C455.216,138.951,458.413,126.448,467.048,117.814z M396.941,134.066
			c-8.645-8.644-11.841-21.17-13.021-29.294c8.102,1.164,20.575,4.346,29.272,13.043c8.634,8.635,11.832,21.138,13.015,29.267
			C418.078,145.897,405.573,142.699,396.941,134.066z M283.246,117.814c8.644-8.645,21.17-11.841,29.294-13.021
			c-1.164,8.102-4.346,20.575-13.043,29.272c-8.635,8.634-21.138,11.832-29.268,13.015
			C271.415,138.951,274.612,126.448,283.246,117.814z M213.139,134.066c-8.645-8.644-11.841-21.17-13.021-29.294
			c8.102,1.164,20.575,4.346,29.272,13.044c8.635,8.634,11.832,21.137,13.016,29.266
			C234.276,145.897,221.773,142.699,213.139,134.066z M99.445,117.814c8.644-8.645,21.17-11.841,29.294-13.021
			c-1.164,8.102-4.346,20.575-13.043,29.272c-8.635,8.634-21.138,11.832-29.267,13.015
			C87.614,138.951,90.812,126.448,99.445,117.814z M29.337,134.066c-8.636-8.636-11.834-21.143-13.016-29.267
			c8.129,1.184,20.633,4.382,29.267,13.016c8.635,8.634,11.832,21.137,13.016,29.266C50.475,145.897,37.971,142.699,29.337,134.066z
			 M72.517,83.047c-4.911-6.585-11.492-17.688-11.492-29.898c0-12.212,6.583-23.318,11.492-29.9
			c4.911,6.586,11.492,17.69,11.492,29.9C84.008,65.359,77.427,76.462,72.517,83.047z M256.318,83.047
			c-4.911-6.585-11.492-17.688-11.492-29.898c0-12.212,6.583-23.318,11.492-29.9c4.911,6.586,11.492,17.69,11.492,29.9
			C267.81,65.359,261.229,76.462,256.318,83.047z M428.628,53.149c0-12.212,6.583-23.318,11.492-29.9
			c4.911,6.586,11.492,17.69,11.492,29.9c0,12.209-6.581,23.312-11.492,29.898C435.209,76.462,428.628,65.359,428.628,53.149z"/>
	</g>
</g>
<g>
	<g>
		<path d="M511.998,340.352l-0.081-7.331l-7.33-0.081c-1.252-0.001-29.921-0.116-48.14,18.101
			c-3.924,3.924-6.994,8.335-9.401,12.853v-21.848c4.503-4.936,16.491-19.588,19.063-38.086h45.529v-14.989h-45.691
			c-3.468-21.836-19.812-38.076-20.587-38.833l-5.24-5.126l-5.24,5.126c-0.775,0.757-17.12,16.998-20.587,38.833H282.145
			c-3.468-21.836-19.812-38.076-20.587-38.833l-5.24-5.126l-5.24,5.126c-0.775,0.757-17.12,16.998-20.587,38.833H98.344
			c-3.468-21.836-19.812-38.076-20.587-38.833l-5.24-5.126l-5.24,5.126c-0.775,0.757-17.12,16.998-20.587,38.833H0v14.989h46.528
			c2.378,17.113,12.811,30.926,17.926,36.808v21.092c-2.219-3.802-4.933-7.487-8.265-10.819
			c-18.22-18.219-46.91-18.081-48.14-18.101l-7.33,0.081l-0.082,7.331c-0.013,1.213-0.119,29.921,18.101,48.141
			c15.385,15.385,38.244,17.702,45.716,18.043v46.819h14.989v-46.778c5.922-0.156,30.568-1.802,46.853-18.084
			c18.218-18.219,18.114-46.928,18.101-48.141l-0.081-7.331l-7.331-0.081c-1.239-0.001-29.922-0.116-48.141,18.102
			c-3.924,3.924-6.994,8.336-9.401,12.853v-21.848c4.503-4.936,16.491-19.588,19.063-38.086h131.823
			c2.378,17.113,12.811,30.926,17.926,36.808v21.092c-2.219-3.802-4.934-7.487-8.265-10.819
			c-18.22-18.219-46.904-18.081-48.141-18.101l-7.331,0.081l-0.081,7.331c-0.013,1.213-0.117,29.921,18.102,48.141
			c15.385,15.385,38.244,17.702,45.716,18.043v46.819h14.989v-46.778c5.922-0.156,30.568-1.802,46.853-18.084
			c18.218-18.219,18.114-46.928,18.101-48.141l-0.081-7.331l-7.331-0.081c-1.231-0.001-29.923-0.116-48.141,18.101
			c-3.924,3.924-6.994,8.335-9.401,12.853v-21.847c4.503-4.936,16.491-19.588,19.062-38.086h131.823
			c2.378,17.113,12.811,30.926,17.926,36.808v21.093c-2.219-3.802-4.934-7.488-8.265-10.82
			c-18.219-18.219-46.897-18.081-48.141-18.101l-7.331,0.081l-0.081,7.331c-0.013,1.213-0.117,29.921,18.102,48.141
			c15.385,15.385,38.244,17.702,45.716,18.043v46.819h14.989v-46.778c5.922-0.156,30.568-1.802,46.853-18.084
			C512.117,370.273,512.011,341.565,511.998,340.352z M29.337,377.893c-8.636-8.636-11.834-21.143-13.016-29.267
			c8.129,1.184,20.633,4.382,29.267,13.016c8.635,8.634,11.832,21.137,13.016,29.266C50.475,389.724,37.971,386.526,29.337,377.893z
			 M99.445,361.642c8.644-8.645,21.17-11.841,29.294-13.021c-1.164,8.102-4.346,20.575-13.043,29.272
			c-8.635,8.634-21.138,11.832-29.267,13.015C87.614,382.779,90.812,370.275,99.445,361.642z M72.517,326.874
			c-4.911-6.585-11.492-17.688-11.492-29.898c0-12.212,6.583-23.317,11.492-29.9c4.911,6.586,11.492,17.689,11.492,29.9
			C84.008,309.186,77.427,320.289,72.517,326.874z M213.139,377.893c-8.645-8.644-11.841-21.17-13.021-29.294
			c8.102,1.164,20.575,4.346,29.272,13.044c8.635,8.634,11.832,21.137,13.016,29.266
			C234.276,389.724,221.773,386.526,213.139,377.893z M283.246,361.642c8.644-8.645,21.17-11.841,29.294-13.021
			c-1.164,8.102-4.346,20.575-13.043,29.272c-8.635,8.634-21.138,11.832-29.268,13.015
			C271.415,382.779,274.612,370.275,283.246,361.642z M256.318,326.874c-4.911-6.585-11.492-17.688-11.492-29.898
			c0-12.212,6.583-23.317,11.492-29.9c4.911,6.586,11.492,17.689,11.492,29.9C267.81,309.186,261.229,320.289,256.318,326.874z
			 M396.941,377.893c-8.645-8.644-11.841-21.17-13.021-29.294c8.102,1.164,20.575,4.346,29.272,13.043
			c8.634,8.635,11.832,21.138,13.015,29.267C418.078,389.724,405.573,386.526,396.941,377.893z M440.12,326.874
			c-4.911-6.585-11.492-17.688-11.492-29.898c0-12.212,6.583-23.317,11.492-29.9c4.911,6.586,11.492,17.689,11.492,29.9
			C451.612,309.186,445.031,320.289,440.12,326.874z M483.3,377.893c-8.635,8.634-21.138,11.832-29.268,13.015
			c1.185-8.129,4.382-20.632,13.016-29.266c8.644-8.645,21.17-11.841,29.293-13.021C495.178,356.723,491.997,369.195,483.3,377.893z
			"/>
	</g>
</g>
<g>
	<g>
		<rect y="495.827" width="511.637" height="14.989"/>
	</g>
</g>
<g>
	<g>
		<rect x="19.986" y="228.017" width="14.989" height="14.989"/>
	</g>
</g>
<g>
	<g>
		<rect x="151.892" y="263.992" width="14.989" height="14.989"/>
	</g>
</g>
<g>
	<g>
		<rect x="112.92" y="243.007" width="14.989" height="14.989"/>
	</g>
</g>
<g>
	<g>
		<rect x="139.901" y="210.03" width="14.989" height="14.989"/>
	</g>
</g>
<g>
	<g>
		<rect x="191.864" y="245.005" width="14.989" height="14.989"/>
	</g>
</g>
<g>
	<g>
		<rect x="170.879" y="210.03" width="14.989" height="14.989"/>
	</g>
</g>
<g>
	<g>
		<rect x="118.916" y="455.856" width="14.989" height="14.989"/>
	</g>
</g>
<g>
	<g>
		<rect x="17.987" y="466.848" width="14.989" height="14.989"/>
	</g>
</g>
<g>
	<g>
		<rect x="142.899" y="423.878" width="14.989" height="14.989"/>
	</g>
</g>
<g>
	<g>
		<rect x="168.88" y="392.9" width="14.989" height="14.989"/>
	</g>
</g>
<g>
	<g>
		<rect x="157.888" y="352.929" width="14.989" height="14.989"/>
	</g>
</g>
<g>
	<g>
		<rect x="175.875" y="457.854" width="14.989" height="14.989"/>
	</g>
</g>
<g>
	<g>
		<rect x="190.865" y="418.882" width="14.989" height="14.989"/>
	</g>
</g>
<g>
	<g>
		<rect x="295.79" y="413.885" width="14.989" height="14.989"/>
	</g>
</g>
<g>
	<g>
		<rect x="311.779" y="468.847" width="14.989" height="14.989"/>
	</g>
</g>
<g>
	<g>
		<rect x="328.767" y="430.873" width="14.989" height="14.989"/>
	</g>
</g>
<g>
	<g>
		<rect x="350.751" y="392.9" width="14.989" height="14.989"/>
	</g>
</g>
<g>
	<g>
		<rect x="339.759" y="352.929" width="14.989" height="14.989"/>
	</g>
</g>
<g>
	<g>
		<rect x="357.746" y="457.854" width="14.989" height="14.989"/>
	</g>
</g>
<g>
	<g>
		<rect x="390.723" y="422.879" width="14.989" height="14.989"/>
	</g>
</g>
<g>
	<g>
		<rect x="467.668" y="457.854" width="14.989" height="14.989"/>
	</g>
</g>
<g>
	<g>
		<rect x="482.658" y="422.879" width="14.989" height="14.989"/>
	</g>
</g>
<g>
	<g>
		<rect x="305.783" y="243.007" width="14.989" height="14.989"/>
	</g>
</g>
<g>
	<g>
		<rect x="314.777" y="210.03" width="14.989" height="14.989"/>
	</g>
</g>
<g>
	<g>
		<rect x="347.753" y="255.997" width="14.989" height="14.989"/>
	</g>
</g>
<g>
	<g>
		<rect x="358.746" y="210.03" width="14.989" height="14.989"/>
	</g>
</g>
<g>
	<g>
		<rect x="481.659" y="210.03" width="14.989" height="14.989"/>
	</g>
</g>
<g>
	<g>
		<rect x="470.666" y="245.005" width="14.989" height="14.989"/>
	</g>
</g>
<g>
</g>
<g>
</g>
<g>
</g>
<g>
</g>
<g>
</g>
<g>
</g>
<g>
</g>
<g>
</g>
<g>
</g>
<g>
</g>
<g>
</g>
<g>
</g>
<g>
</g>
<g>
</g>
<g>
</g>
</svg>
