<svg width="24" height="26" viewBox="0 0 24 26" fill="none" xmlns="http://www.w3.org/2000/svg">
<path d="M12.2772 10.8207L11.6778 10.8467L11.6779 10.8498L12.2772 10.8207ZM11.6612 1.64323L12.2526 1.5418L12.2478 1.51364L12.2403 1.48606L11.6612 1.64323ZM11.5573 12.4468L11.3811 11.8733L11.3771 11.8745L11.5573 12.4468ZM10.034 11.5071L10.5448 11.1922L10.5404 11.1852L10.034 11.5071ZM4.97056 3.48479L4.39044 3.63794L4.40553 3.69511L4.43149 3.74823L4.97056 3.48479ZM5.22498 2.66091L4.79404 2.24342L4.7923 2.24523L5.22498 2.66091ZM11.0019 1.03804L11.1483 0.456173L11.1461 0.45564L11.0019 1.03804ZM20.7964 13.049L21.1262 13.5503L21.1313 13.5468L20.7964 13.049ZM16.3847 14.1987L16.5234 14.7825L16.526 14.7818L16.3847 14.1987ZM21.1472 12.263H20.5472V12.2821L20.5484 12.3011L21.1472 12.263ZM21.1477 12.2521L20.551 12.1893L20.5496 12.2019L20.5488 12.2145L21.1477 12.2521ZM21.1477 12.2521L21.7444 12.3149L21.7457 12.3024L21.7465 12.2899L21.1477 12.2521ZM21.1472 12.2283L20.5505 12.2907L20.5528 12.3133L20.5569 12.3357L21.1472 12.2283ZM18.4146 8.18578L18.6784 7.64684L18.6738 7.64463L18.4146 8.18578ZM17.5442 8.21934L17.8715 8.72229L17.878 8.71792L17.5442 8.21934ZM15.0791 11.4748L15.5627 11.8299L15.5634 11.829L15.0791 11.4748ZM14.0776 12.8357L13.6353 12.4303L13.6245 12.4421L13.6142 12.4545L14.0776 12.8357ZM14.0679 13.9973L14.57 13.6689L14.5697 13.6684L14.0679 13.9973ZM15.1873 14.4845L15.0473 13.9011L15.037 13.9036L15.0267 13.9064L15.1873 14.4845ZM3.0467 16.4531L2.44988 16.5149L2.45033 16.519L3.0467 16.4531ZM3.46568 12.5556L2.96038 12.232L2.95663 12.238L3.46568 12.5556ZM3.28596 17.4577L3.81708 17.1786L3.81604 17.1766L3.28596 17.4577ZM4.00266 17.9417L4.03314 17.3424L4.02439 17.3421L4.00266 17.9417ZM7.91637 16.7605L7.73395 16.1889L7.73272 16.1893L7.91637 16.7605ZM9.52408 16.2463L9.37596 15.6648L9.31343 15.6808L9.25572 15.7096L9.52408 16.2463ZM10.218 15.3087L10.8171 15.3419L10.8172 15.3411L10.218 15.3087ZM9.58687 14.2499L9.36046 14.8055L9.36812 14.8087L9.37587 14.8116L9.58687 14.2499ZM8.45552 13.7898L8.22674 14.3445L8.33664 14.3898H8.45552V13.7898ZM4.21486 12.128L4.19096 12.7275L4.19957 12.7278L4.20819 12.7279L4.21486 12.128ZM12.2079 20.3612L11.6079 20.3581L11.6079 20.3595L12.2079 20.3612ZM12.1267 24.4525L12.6904 24.6584L12.6939 24.6483L12.1267 24.4525ZM12.2177 18.6723L12.8164 18.7122L12.8165 18.7102L12.2177 18.6723ZM11.5443 17.7218L11.3287 18.2817L11.3292 18.2819L11.5443 17.7218ZM10.3447 17.9924L10.8036 18.3792L10.8124 18.3683L10.3447 17.9924ZM9.55224 18.93V18.33H9.27502L9.09534 18.5411L9.55224 18.93ZM6.66053 22.4518L7.2246 22.6564L7.22675 22.6503L6.66053 22.4518ZM6.61723 22.7993L7.21453 22.7419L7.21362 22.7337L6.61723 22.7993ZM6.837 23.2908L6.37126 23.6692L6.37804 23.6773L6.837 23.2908ZM11.4458 24.983L11.5468 25.5744L11.5528 25.5734L11.4458 24.983ZM18.2458 23.1351L18.0235 22.5778L18.0219 22.5784L18.2458 23.1351ZM21.2782 19.2777L20.6844 19.1921L20.6843 19.1923L21.2782 19.2777ZM17.3894 23.0442L17.7603 22.5725L17.7589 22.5715L17.3894 23.0442ZM14.9351 19.2073L14.4238 19.5213L14.4242 19.5219L14.9351 19.2073ZM14.2996 18.1724L14.8109 17.8584L14.806 17.8504L14.8008 17.8426L14.2996 18.1724ZM14.4068 16.9403L14.8702 17.3214L14.8727 17.3184L14.4068 16.9403ZM15.5186 16.5895L15.7755 16.0473L15.7559 16.038L15.7357 16.0302L15.5186 16.5895ZM17.1187 17.1211L16.9305 17.6908L16.9316 17.6912L17.1187 17.1211ZM20.9881 18.4625L21.3629 17.994L21.3558 17.9883L21.3486 17.9829L20.9881 18.4625ZM12.8767 10.7947C12.8411 9.97515 12.7009 7.7566 12.563 5.70893C12.4939 4.68332 12.4252 3.69736 12.3702 2.94641C12.3427 2.57111 12.3185 2.25337 12.2993 2.01832C12.2817 1.80252 12.2655 1.61714 12.2526 1.5418L11.0699 1.74466C11.0688 1.73845 11.0721 1.76145 11.0795 1.83984C11.0859 1.9079 11.0939 2.0006 11.1033 2.1159C11.122 2.34612 11.146 2.66009 11.1734 3.03416C11.2282 3.78193 11.2967 4.76535 11.3657 5.78956C11.5039 7.84155 11.643 10.0445 11.6778 10.8467L12.8767 10.7947ZM11.7335 13.0203C11.8652 12.9799 12.2191 12.8704 12.5008 12.4822C12.7733 12.1066 12.9139 11.562 12.8765 10.7916L11.6779 10.8498C11.7077 11.4619 11.5853 11.7006 11.5294 11.7775C11.4828 11.8419 11.4431 11.8542 11.3811 11.8733L11.7335 13.0203ZM9.52327 11.8219C9.93014 12.482 10.3559 12.8534 10.7947 13.0098C11.2484 13.1715 11.6037 13.0612 11.7375 13.0191L11.3771 11.8745C11.3149 11.8941 11.274 11.9067 11.1977 11.8795C11.1066 11.847 10.8687 11.7177 10.5448 11.1922L9.52327 11.8219ZM4.43149 3.74823C4.4636 3.81394 4.57929 4.00113 4.71205 4.21483C4.8594 4.45199 5.06293 4.77678 5.30319 5.1587C5.78387 5.9228 6.41354 6.91873 7.03925 7.90669C7.66502 8.89476 8.28712 9.87531 8.75275 10.6088C8.98557 10.9756 9.17928 11.2806 9.31479 11.4939C9.38255 11.6006 9.43576 11.6843 9.47203 11.7414C9.49016 11.7699 9.50406 11.7918 9.51343 11.8066C9.51812 11.8139 9.52167 11.8195 9.52405 11.8233C9.52524 11.8251 9.52614 11.8265 9.52674 11.8275C9.52704 11.828 9.52726 11.8283 9.52741 11.8286C9.52749 11.8287 9.52755 11.8288 9.52758 11.8288C9.52762 11.8289 9.52764 11.8289 10.034 11.5071C10.5404 11.1852 10.5404 11.1852 10.5404 11.1852C10.5403 11.1851 10.5403 11.185 10.5402 11.1849C10.54 11.1847 10.5398 11.1843 10.5395 11.1838C10.5389 11.1829 10.538 11.1815 10.5368 11.1796C10.5345 11.1759 10.5309 11.1703 10.5262 11.1629C10.5169 11.1482 10.503 11.1264 10.4849 11.0978C10.4486 11.0408 10.3954 10.9571 10.3277 10.8505C10.1922 10.6372 9.9986 10.3323 9.76585 9.96568C9.30035 9.23239 8.6785 8.25222 8.05303 7.26463C7.42749 6.27693 6.7986 5.28224 6.31892 4.51972C6.079 4.13834 5.87689 3.81582 5.73135 3.58155C5.57122 3.32382 5.50675 3.21545 5.50963 3.22135L4.43149 3.74823ZM4.7923 2.24523C4.43584 2.61627 4.25641 3.13026 4.39044 3.63794L5.55068 3.33164C5.5418 3.298 5.53776 3.20138 5.65766 3.07658L4.7923 2.24523ZM11.1461 0.45564C10.7574 0.359363 10.2049 0.401591 9.67297 0.481839C9.11023 0.566744 8.46532 0.712198 7.83686 0.888534C7.20845 1.06485 6.58285 1.27588 6.05994 1.49592C5.56717 1.70327 5.07311 1.95537 4.79404 2.24342L5.65591 3.07839C5.74657 2.98482 6.02888 2.8109 6.52537 2.60198C6.99171 2.40575 7.56824 2.21025 8.16104 2.04391C8.75379 1.8776 9.34917 1.74427 9.852 1.66841C10.3857 1.58789 10.724 1.58735 10.8577 1.62045L11.1461 0.45564ZM12.2403 1.48606C12.0931 0.943883 11.667 0.586687 11.1483 0.456177L10.8555 1.61991C11.0167 1.66046 11.0648 1.73631 11.0822 1.80041L12.2403 1.48606ZM20.4667 12.5477C20.4613 12.5512 20.4608 12.5515 20.4621 12.5507C20.4628 12.5503 20.4636 12.5498 20.4645 12.5494C20.4653 12.5489 20.4658 12.5487 20.4658 12.5487C20.4656 12.5487 20.4536 12.5546 20.4174 12.5672C20.34 12.5941 20.1971 12.6365 19.9121 12.7115C19.3479 12.8599 18.2919 13.1192 16.2434 13.6156L16.526 14.7818C18.5699 14.2866 19.6391 14.0241 20.2173 13.872C20.768 13.7272 20.9486 13.667 21.1261 13.5502L20.4667 12.5477ZM20.5484 12.3011C20.5588 12.4642 20.5044 12.5223 20.4616 12.5511L21.1313 13.5468C21.5843 13.2422 21.7789 12.7416 21.746 12.2248L20.5484 12.3011ZM20.5488 12.2145C20.5488 12.2146 20.5472 12.2374 20.5472 12.263H21.7472C21.7472 12.2738 21.7469 12.2821 21.7467 12.286C21.7465 12.2896 21.7463 12.2923 21.7465 12.2897L20.5488 12.2145ZM20.551 12.1893L20.551 12.1893L21.7444 12.3149L21.7444 12.3149L20.551 12.1893ZM20.5569 12.3357C20.5492 12.2935 20.5481 12.2593 20.5482 12.2395C20.5482 12.2219 20.5493 12.2075 20.5489 12.2142L21.7465 12.2899C21.7465 12.289 21.7481 12.2667 21.7482 12.2411C21.7482 12.2134 21.7467 12.1712 21.7375 12.121L20.5569 12.3357ZM18.1509 8.7247C18.2575 8.77685 18.4655 8.94442 18.7469 9.25677C19.0129 9.55205 19.3006 9.92681 19.5694 10.3251C19.8382 10.7233 20.0806 11.1337 20.2595 11.4974C20.4472 11.8787 20.5358 12.1507 20.5505 12.2907L21.744 12.1659C21.7061 11.8036 21.5353 11.3722 21.3362 10.9676C21.1285 10.5455 20.8569 10.0876 20.564 9.65375C20.2713 9.22007 19.9497 8.7991 19.6385 8.4536C19.3426 8.12517 19.0054 7.8069 18.6784 7.64686L18.1509 8.7247ZM17.878 8.71792C17.9314 8.68219 18.0094 8.65698 18.1555 8.72693L18.6738 7.64463C18.2049 7.42011 17.6681 7.41438 17.2104 7.72076L17.878 8.71792ZM15.5634 11.829C16.661 10.328 17.2337 9.54528 17.5526 9.12389C17.7138 8.91082 17.7991 8.80478 17.8494 8.74813C17.8728 8.72175 17.8814 8.71432 17.8802 8.71535C17.8759 8.71919 17.8702 8.72303 17.8714 8.72225L17.217 7.71643C17.0327 7.83636 16.9008 7.99644 16.5956 8.39986C16.2692 8.83131 15.6884 9.62494 14.5947 11.1207L15.5634 11.829ZM14.5199 13.2411C14.5292 13.231 14.536 13.2228 14.5384 13.22C14.5417 13.2161 14.5443 13.2129 14.5458 13.2109C14.5489 13.207 14.5515 13.2038 14.5528 13.2021C14.5556 13.1985 14.5581 13.1952 14.5597 13.193C14.5633 13.1883 14.5674 13.1828 14.5717 13.1772C14.5803 13.1656 14.5921 13.1496 14.6064 13.1304C14.635 13.0918 14.6749 13.0376 14.7222 12.9734C14.8168 12.845 14.9418 12.6751 15.0663 12.5057C15.1908 12.3363 15.3149 12.1674 15.4079 12.0408C15.4543 11.9775 15.4931 11.9248 15.5202 11.8879C15.5337 11.8694 15.5443 11.8549 15.5516 11.845C15.5552 11.8401 15.558 11.8363 15.5599 11.8338C15.5608 11.8325 15.5615 11.8315 15.562 11.8309C15.5622 11.8305 15.5624 11.8303 15.5625 11.8301C15.5626 11.83 15.5626 11.83 15.5627 11.8299C15.5627 11.8299 15.5627 11.8299 15.5627 11.8299C15.5627 11.8299 15.5627 11.8299 15.0791 11.4748C14.5954 11.1197 14.5954 11.1197 14.5954 11.1198C14.5954 11.1198 14.5954 11.1198 14.5954 11.1198C14.5953 11.1198 14.5953 11.1199 14.5952 11.12C14.5951 11.1201 14.5949 11.1204 14.5947 11.1207C14.5942 11.1214 14.5935 11.1223 14.5926 11.1236C14.5907 11.1261 14.5879 11.1299 14.5843 11.1349C14.5771 11.1447 14.5664 11.1592 14.5529 11.1776C14.5258 11.2145 14.4871 11.2672 14.4407 11.3305C14.3477 11.457 14.2237 11.6258 14.0994 11.795C13.975 11.9643 13.8503 12.1338 13.7561 12.2617C13.7089 12.3257 13.6696 12.379 13.6418 12.4165C13.6278 12.4354 13.6172 12.4498 13.61 12.4594C13.6063 12.4643 13.6043 12.4671 13.6034 12.4682C13.5893 12.4868 13.6112 12.4565 13.6353 12.4303L14.5199 13.2411ZM14.5697 13.6684C14.4327 13.4595 14.4746 13.2976 14.541 13.2168L13.6142 12.4545C13.1588 13.0082 13.1921 13.7557 13.5661 14.3263L14.5697 13.6684ZM15.0267 13.9064C14.9169 13.9369 14.7202 13.8985 14.57 13.6689L13.5658 14.3258C13.9439 14.9038 14.6393 15.2595 15.3479 15.0626L15.0267 13.9064ZM16.246 13.615C15.9176 13.693 15.618 13.7645 15.4005 13.8165C15.2917 13.8425 15.2034 13.8637 15.1424 13.8783C15.1118 13.8856 15.0881 13.8913 15.0719 13.8952C15.0639 13.8971 15.0577 13.8986 15.0536 13.8996C15.0515 13.9001 15.05 13.9005 15.0489 13.9007C15.0484 13.9008 15.048 13.9009 15.0477 13.901C15.0476 13.901 15.0475 13.9011 15.0474 13.9011C15.0474 13.9011 15.0473 13.9011 15.0473 13.9011C15.0473 13.9011 15.0473 13.9011 15.0473 13.9011C15.0473 13.9011 15.0473 13.9011 15.1873 14.4845C15.3273 15.068 15.3274 15.068 15.3274 15.068C15.3274 15.068 15.3274 15.068 15.3274 15.068C15.3274 15.0679 15.3274 15.0679 15.3274 15.0679C15.3275 15.0679 15.3276 15.0679 15.3277 15.0679C15.328 15.0678 15.3284 15.0677 15.3289 15.0676C15.3299 15.0673 15.3315 15.067 15.3335 15.0665C15.3376 15.0655 15.3438 15.064 15.3518 15.0621C15.3678 15.0582 15.3915 15.0526 15.422 15.0453C15.4829 15.0307 15.571 15.0096 15.6795 14.9836C15.8967 14.9317 16.1957 14.8603 16.5234 14.7825L16.246 13.615ZM3.6435 16.3912C3.5807 15.7853 3.58669 15.0083 3.65634 14.3084C3.69103 13.9596 3.74046 13.6412 3.80113 13.3805C3.86481 13.1069 3.93036 12.9443 3.97472 12.8732L2.95663 12.238C2.80612 12.4792 2.70494 12.7967 2.63238 13.1085C2.55681 13.4331 2.50048 13.8052 2.46223 14.1896C2.38599 14.9558 2.37737 15.8152 2.4499 16.5149L3.6435 16.3912ZM3.81604 17.1766C3.75972 17.0704 3.68983 16.8102 3.64306 16.3871L2.45033 16.519C2.49884 16.9577 2.58484 17.4163 2.75588 17.7388L3.81604 17.1766ZM4.02439 17.3421C3.96933 17.3401 3.88706 17.3118 3.81708 17.1786L2.75484 17.7369C2.99665 18.197 3.43838 18.5216 3.98094 18.5413L4.02439 17.3421ZM7.73272 16.1893C5.92814 16.7695 5.0046 17.065 4.50735 17.2146C4.2555 17.2904 4.13199 17.3229 4.06534 17.3369C4.03534 17.3432 4.02749 17.3434 4.03173 17.343C4.03889 17.3425 4.04435 17.343 4.03313 17.3425L3.97219 18.5409C4.18895 18.5519 4.36622 18.5102 4.85316 18.3637C5.3641 18.2099 6.3016 17.9099 8.10002 17.3317L7.73272 16.1893ZM9.25572 15.7096C9.26872 15.7033 9.28884 15.6943 9.29583 15.6914C9.30016 15.6896 9.30746 15.6867 9.3104 15.6856C9.31611 15.6834 9.32058 15.6818 9.32231 15.6812C9.32619 15.6798 9.3291 15.6789 9.32966 15.6787C9.33133 15.6781 9.33207 15.6779 9.33095 15.6782C9.32914 15.6788 9.32557 15.68 9.31977 15.6819C9.30843 15.6856 9.29149 15.691 9.2694 15.6981C9.22538 15.7123 9.16261 15.7324 9.08715 15.7566C8.93632 15.8049 8.73571 15.869 8.53518 15.9331C8.33468 15.9971 8.13437 16.0611 7.98418 16.1091C7.90909 16.133 7.84653 16.153 7.80274 16.167C7.78085 16.174 7.76365 16.1795 7.75193 16.1832C7.74606 16.1851 7.74157 16.1865 7.73854 16.1875C7.73703 16.1879 7.73588 16.1883 7.73511 16.1886C7.73473 16.1887 7.73444 16.1888 7.73424 16.1888C7.73415 16.1889 7.73408 16.1889 7.73403 16.1889C7.734 16.1889 7.73398 16.1889 7.73397 16.1889C7.73396 16.1889 7.73395 16.1889 7.91637 16.7605C8.09879 17.3321 8.09879 17.3321 8.09881 17.3321C8.09882 17.3321 8.09884 17.3321 8.09886 17.3321C8.09891 17.3321 8.09898 17.3321 8.09908 17.332C8.09928 17.332 8.09957 17.3319 8.09995 17.3318C8.10072 17.3315 8.10187 17.3311 8.10339 17.3307C8.10642 17.3297 8.11092 17.3283 8.11678 17.3264C8.12852 17.3226 8.14573 17.3171 8.16763 17.3102C8.21144 17.2962 8.27402 17.2762 8.34914 17.2522C8.49938 17.2042 8.69978 17.1403 8.9004 17.0762C9.10098 17.0121 9.3019 16.9478 9.45312 16.8994C9.52869 16.8752 9.59207 16.8549 9.63686 16.8405C9.65918 16.8333 9.6773 16.8275 9.69013 16.8233C9.69642 16.8213 9.7022 16.8194 9.70684 16.8178C9.70894 16.8171 9.71217 16.8161 9.71557 16.8149C9.71701 16.8144 9.72059 16.8132 9.72496 16.8117C9.72693 16.811 9.7316 16.8093 9.73746 16.8071C9.74047 16.8059 9.74783 16.803 9.75221 16.8012C9.75926 16.7983 9.77941 16.7892 9.79244 16.7829L9.25572 15.7096ZM9.61896 15.2755C9.60448 15.5368 9.47269 15.6402 9.37596 15.6648L9.67219 16.8277C10.3744 16.6488 10.7796 16.0182 10.8171 15.3419L9.61896 15.2755ZM9.37587 14.8116C9.5006 14.8584 9.63317 15.0126 9.61892 15.2763L10.8172 15.3411C10.8549 14.6435 10.4916 13.9488 9.79787 13.6882L9.37587 14.8116ZM8.45552 14.3898C8.39474 14.3867 8.31585 14.3733 8.29727 14.3685C8.28829 14.366 8.27411 14.3617 8.2689 14.36C8.25983 14.3571 8.25285 14.3545 8.25093 14.3538C8.24579 14.352 8.2419 14.3505 8.24122 14.3502C8.23894 14.3493 8.23755 14.3488 8.23818 14.349C8.2389 14.3493 8.24097 14.3501 8.24493 14.3517C8.25256 14.3548 8.26421 14.3595 8.27964 14.3657C8.31034 14.3782 8.35433 14.396 8.40735 14.4176C8.51333 14.4606 8.65453 14.5181 8.79578 14.5756C8.93701 14.6331 9.07818 14.6906 9.18405 14.7337C9.23699 14.7552 9.28109 14.7732 9.31196 14.7858C9.3274 14.7921 9.33952 14.797 9.34779 14.8004C9.35192 14.8021 9.35509 14.8034 9.35722 14.8042C9.35829 14.8047 9.3591 14.805 9.35964 14.8052C9.35991 14.8053 9.36012 14.8054 9.36025 14.8055C9.36032 14.8055 9.36037 14.8055 9.36041 14.8055C9.36042 14.8055 9.36044 14.8055 9.36045 14.8055C9.36045 14.8055 9.36046 14.8055 9.58687 14.2499C9.81328 13.6943 9.81328 13.6943 9.81327 13.6943C9.81326 13.6943 9.81325 13.6943 9.81323 13.6942C9.8132 13.6942 9.81314 13.6942 9.81308 13.6942C9.81294 13.6941 9.81273 13.694 9.81246 13.6939C9.81192 13.6937 9.81111 13.6934 9.81004 13.6929C9.8079 13.6921 9.80473 13.6908 9.80059 13.6891C9.79231 13.6857 9.78018 13.6808 9.76473 13.6745C9.73384 13.6619 9.68971 13.6439 9.63675 13.6223C9.53083 13.5792 9.38957 13.5217 9.24823 13.4641C9.10692 13.4066 8.96542 13.349 8.85906 13.3058C8.80592 13.2842 8.76134 13.2661 8.72987 13.2534C8.71422 13.2471 8.70138 13.2419 8.69223 13.2382C8.68781 13.2364 8.68342 13.2347 8.67973 13.2332C8.67816 13.2326 8.67509 13.2314 8.67166 13.2301C8.6704 13.2296 8.66607 13.2279 8.66063 13.2259C8.65856 13.2252 8.65146 13.2226 8.6423 13.2196C8.63705 13.2179 8.62283 13.2136 8.61383 13.211C8.59522 13.2063 8.51631 13.1929 8.45552 13.1898V14.3898ZM4.20819 12.7279C4.21236 12.728 4.2049 12.7278 4.19782 12.7267C4.19542 12.7263 4.20698 12.728 4.24349 12.7389C4.32177 12.7622 4.46247 12.812 4.73814 12.9197C5.2834 13.1327 6.28831 13.5449 8.22674 14.3445L8.68431 13.2351C6.75125 12.4378 5.73326 12.0201 5.17477 11.802C4.65009 11.597 4.44982 11.5305 4.22152 11.528L4.20819 12.7279ZM3.97094 12.8792C4.06034 12.7396 4.13829 12.7254 4.19096 12.7275L4.23875 11.5284C3.69381 11.5067 3.24127 11.7935 2.96042 12.232L3.97094 12.8792ZM11.6079 20.3595C11.6025 22.2548 11.5979 23.2253 11.587 23.7454C11.5814 24.0084 11.5745 24.1382 11.5674 24.2086C11.5625 24.2578 11.5605 24.2542 11.5596 24.2567L12.6939 24.6483C12.7609 24.4542 12.7759 24.2832 12.7867 23.7706C12.7979 23.2368 12.8025 22.2525 12.8079 20.3629L11.6079 20.3595ZM11.619 18.6324C11.6168 18.6649 11.6146 19.1229 11.6124 19.5196C11.6113 19.7297 11.6101 19.9394 11.6093 20.0965C11.6089 20.175 11.6086 20.2404 11.6083 20.2862C11.6082 20.3091 11.6081 20.3271 11.608 20.3393C11.608 20.3455 11.608 20.3502 11.608 20.3533C11.608 20.3549 11.608 20.3561 11.6079 20.3569C11.6079 20.3573 11.6079 20.3576 11.6079 20.3578C11.6079 20.3579 11.6079 20.358 11.6079 20.358C11.6079 20.3581 11.6079 20.3581 11.6079 20.3581C11.6079 20.3581 11.6079 20.3581 12.2079 20.3612C12.8079 20.3643 12.8079 20.3643 12.8079 20.3643C12.8079 20.3643 12.8079 20.3643 12.8079 20.3643C12.8079 20.3642 12.8079 20.3641 12.8079 20.364C12.8079 20.3638 12.8079 20.3635 12.8079 20.3631C12.8079 20.3623 12.8079 20.3611 12.808 20.3595C12.808 20.3564 12.808 20.3517 12.808 20.3456C12.8081 20.3333 12.8082 20.3153 12.8083 20.2925C12.8085 20.2467 12.8089 20.1813 12.8093 20.1028C12.8101 19.9457 12.8112 19.7362 12.8124 19.5262C12.8148 19.0824 12.8174 18.696 12.8163 18.7122L11.619 18.6324ZM11.3292 18.2819C11.5626 18.3715 11.6255 18.5302 11.6189 18.6344L12.8165 18.7102C12.8618 17.9938 12.3942 17.4055 11.7594 17.1617L11.3292 18.2819ZM10.8124 18.3683C10.8938 18.267 11.0845 18.1877 11.3287 18.2817L11.7599 17.1618C11.1098 16.9116 10.3369 17.0445 9.87709 17.6165L10.8124 18.3683ZM9.55224 19.53C9.68876 19.5143 9.85772 19.4464 9.89562 19.422C9.91289 19.4095 9.93916 19.3886 9.94847 19.3806C9.96426 19.3667 9.97583 19.355 9.97891 19.3519C9.98738 19.3433 9.99382 19.3363 9.99542 19.3345C10.0001 19.3294 10.004 19.325 10.0054 19.3234C10.0091 19.3191 10.0131 19.3146 10.0163 19.3108C10.0233 19.3026 10.0328 19.2916 10.0438 19.2786C10.0662 19.2523 10.0977 19.2152 10.135 19.1711C10.2096 19.0829 10.3088 18.9655 10.4078 18.8482C10.5068 18.7309 10.6057 18.6137 10.6799 18.5257C10.717 18.4818 10.7479 18.4451 10.7695 18.4195C10.7803 18.4066 10.7888 18.3966 10.7946 18.3897C10.7975 18.3863 10.7997 18.3836 10.8012 18.3818C10.802 18.381 10.8025 18.3803 10.8029 18.3798C10.8031 18.3796 10.8032 18.3794 10.8033 18.3793C10.8034 18.3793 10.8034 18.3792 10.8034 18.3792C10.8035 18.3792 10.8035 18.3792 10.8035 18.3792C10.8035 18.3791 10.8035 18.3791 10.3447 17.9924C9.88597 17.6057 9.88597 17.6057 9.88596 17.6057C9.88596 17.6057 9.88595 17.6058 9.88594 17.6058C9.88591 17.6058 9.88588 17.6058 9.88583 17.6059C9.88573 17.606 9.88559 17.6062 9.8854 17.6064C9.88502 17.6068 9.88446 17.6075 9.88371 17.6084C9.88222 17.6102 9.88 17.6128 9.87711 17.6162C9.87133 17.6231 9.86285 17.6332 9.85205 17.646C9.83044 17.6716 9.79958 17.7082 9.76254 17.7521C9.68844 17.84 9.58965 17.9571 9.4908 18.0742C9.39192 18.1913 9.29313 18.3083 9.21901 18.3959C9.18189 18.4397 9.15126 18.4758 9.12998 18.5008C9.11923 18.5135 9.11148 18.5226 9.10665 18.5282C9.10401 18.5312 9.1034 18.5319 9.104 18.5312C9.10425 18.531 9.10485 18.5303 9.10571 18.5293C9.10645 18.5285 9.10814 18.5266 9.11041 18.5241C9.11159 18.5228 9.11771 18.5161 9.12596 18.5078C9.12892 18.5048 9.14041 18.4932 9.15613 18.4793C9.16541 18.4713 9.19166 18.4504 9.20891 18.4379C9.24678 18.4136 9.41573 18.3457 9.55224 18.33V19.53ZM7.22675 22.6503C7.22876 22.6445 7.227 22.6497 7.22468 22.6542C7.22434 22.6548 7.23027 22.6433 7.25227 22.6115C7.29941 22.5433 7.39075 22.4242 7.57832 22.1953C7.94948 21.7421 8.65129 20.9142 10.0091 19.3189L9.09534 18.5411C7.7412 20.132 7.03018 20.9707 6.64999 21.4349C6.29076 21.8734 6.16893 22.0405 6.09432 22.2533L7.22675 22.6503ZM7.21362 22.7337C7.21138 22.7133 7.21365 22.6865 7.22457 22.6564L6.0965 22.2472C6.0273 22.4379 5.99709 22.6494 6.02083 22.865L7.21362 22.7337ZM7.30267 22.9125C7.23139 22.8247 7.21682 22.7663 7.21447 22.7419L6.01998 22.8567C6.05012 23.1701 6.18927 23.4451 6.37133 23.6692L7.30267 22.9125ZM11.3448 24.3915C11.225 24.412 10.9524 24.397 10.5344 24.3066C10.1392 24.2211 9.67934 24.0833 9.22288 23.9156C8.76643 23.7478 8.32663 23.5551 7.96987 23.3644C7.59266 23.1627 7.37453 22.9977 7.29597 22.9044L6.37804 23.6773C6.61398 23.9575 7.00875 24.2113 7.4041 24.4226C7.8199 24.6449 8.31231 24.8594 8.80899 25.0419C9.30565 25.2244 9.81984 25.3798 10.2808 25.4795C10.719 25.5743 11.1848 25.6362 11.5468 25.5744L11.3448 24.3915ZM11.5632 24.2466C11.5454 24.2953 11.5002 24.3633 11.3388 24.3926L11.5528 25.5734C12.0604 25.4814 12.5024 25.1726 12.6903 24.6584L11.5632 24.2466ZM18.468 23.6924C18.8101 23.556 19.175 23.2593 19.4987 22.9492C19.8392 22.623 20.1955 22.2212 20.5224 21.8054C20.8492 21.3895 21.1555 20.9483 21.3923 20.5402C21.6175 20.1521 21.8197 19.7276 21.8721 19.3631L20.6843 19.1923C20.6669 19.3134 20.5688 19.5685 20.3544 19.938C20.1516 20.2875 19.879 20.682 19.5789 21.0638C19.2788 21.4456 18.96 21.8034 18.6685 22.0827C18.3602 22.3781 18.1361 22.5329 18.0235 22.5778L18.468 23.6924ZM17.0185 23.5158C17.452 23.8567 17.9889 23.8851 18.4696 23.6918L18.0219 22.5784C17.8726 22.6385 17.8031 22.6062 17.7603 22.5725L17.0185 23.5158ZM14.4242 19.5219C15.4914 21.2553 16.07 22.1901 16.4009 22.7062C16.7099 23.1881 16.8454 23.3805 17.0199 23.5169L17.7589 22.5715C17.7588 22.5714 17.7594 22.5719 17.7605 22.5727C17.7615 22.5736 17.7626 22.5746 17.7638 22.5757C17.7663 22.5779 17.7671 22.5789 17.7659 22.5776C17.7624 22.5739 17.7494 22.5594 17.7223 22.523C17.6659 22.4475 17.5742 22.3128 17.4111 22.0584C17.0875 21.5538 16.5158 20.6303 15.446 18.8928L14.4242 19.5219ZM13.7883 18.4863L14.4238 19.5213L15.4464 18.8934L14.8109 17.8584L13.7883 18.4863ZM13.9433 16.5593C13.4938 17.106 13.3914 17.8836 13.7983 18.5021L14.8008 17.8426C14.7205 17.7205 14.7091 17.5174 14.8702 17.3214L13.9433 16.5593ZM15.7357 16.0302C15.0695 15.7716 14.3688 16.0349 13.9408 16.5623L14.8727 17.3184C15.0315 17.1226 15.2034 17.1108 15.3015 17.1489L15.7357 16.0302ZM17.1187 17.1211C17.307 16.5514 17.3069 16.5514 17.3069 16.5514C17.3069 16.5514 17.3069 16.5514 17.3069 16.5514C17.3068 16.5514 17.3068 16.5513 17.3067 16.5513C17.3065 16.5512 17.3062 16.5512 17.3058 16.551C17.3051 16.5508 17.3039 16.5504 17.3024 16.5499C17.2995 16.5489 17.295 16.5475 17.2892 16.5455C17.2777 16.5417 17.2607 16.5361 17.2391 16.529C17.1959 16.5147 17.1342 16.4943 17.06 16.4698C16.9116 16.4207 16.7137 16.3552 16.5151 16.2894C16.3164 16.2236 16.1174 16.1576 15.9669 16.1075C15.8916 16.0824 15.8289 16.0614 15.7847 16.0465C15.7624 16.039 15.7457 16.0334 15.7347 16.0296C15.729 16.0276 15.7262 16.0267 15.7255 16.0264C15.7052 16.0192 15.741 16.031 15.7755 16.0473L15.2618 17.1318C15.2809 17.1409 15.2967 17.147 15.2988 17.1479C15.3044 17.15 15.3089 17.1518 15.3115 17.1527C15.3168 17.1547 15.3215 17.1564 15.3246 17.1575C15.331 17.1597 15.3383 17.1622 15.3452 17.1646C15.3596 17.1696 15.379 17.1761 15.4019 17.1838C15.4479 17.1993 15.512 17.2208 15.5877 17.246C15.7391 17.2964 15.9389 17.3627 16.1377 17.4285C16.3366 17.4944 16.5348 17.56 16.6832 17.6091C16.7575 17.6336 16.8193 17.6541 16.8625 17.6684C16.8842 17.6755 16.9012 17.6811 16.9128 17.685C16.9185 17.6869 16.923 17.6883 16.926 17.6893C16.9275 17.6898 16.9286 17.6902 16.9294 17.6905C16.9298 17.6906 16.93 17.6907 16.9302 17.6907C16.9303 17.6908 16.9304 17.6908 16.9305 17.6908C16.9305 17.6908 16.9305 17.6908 16.9305 17.6908C16.9305 17.6908 16.9305 17.6908 17.1187 17.1211ZM21.3486 17.9829C21.1851 17.86 21.0269 17.7935 20.5435 17.6254C20.0391 17.45 19.1036 17.1413 17.3059 16.5511L16.9316 17.6912C18.7347 18.2832 19.6575 18.5878 20.1494 18.7588C20.3982 18.8453 20.5198 18.8919 20.5849 18.9204C20.6305 18.9404 20.6262 18.9411 20.6275 18.9421L21.3486 17.9829ZM21.8721 19.3634C21.9467 18.8456 21.7844 18.3312 21.3629 17.994L20.6132 18.931C20.6572 18.9662 20.7071 19.0343 20.6844 19.1921L21.8721 19.3634Z" fill="black"/>
</svg>
